<?xml version="1.0" encoding="utf-8"?>
<!-- Generator: Adobe Illustrator 13.0.2, SVG Export Plug-In . SVG Version: 6.00 Build 14948)  -->
<!DOCTYPE svg PUBLIC "-//W3C//DTD SVG 1.1//EN" "http://www.w3.org/Graphics/SVG/1.1/DTD/svg11.dtd" [
	<!ENTITY ns_extend "http://ns.adobe.com/Extensibility/1.0/">
	<!ENTITY ns_ai "http://ns.adobe.com/AdobeIllustrator/10.0/">
	<!ENTITY ns_graphs "http://ns.adobe.com/Graphs/1.0/">
	<!ENTITY ns_vars "http://ns.adobe.com/Variables/1.0/">
	<!ENTITY ns_imrep "http://ns.adobe.com/ImageReplacement/1.0/">
	<!ENTITY ns_sfw "http://ns.adobe.com/SaveForWeb/1.0/">
	<!ENTITY ns_custom "http://ns.adobe.com/GenericCustomNamespace/1.0/">
	<!ENTITY ns_adobe_xpath "http://ns.adobe.com/XPath/1.0/">
]>
<svg version="1.1" id="Layer_1" xmlns:x="&ns_extend;" xmlns:i="&ns_ai;" xmlns:graph="&ns_graphs;"
	 xmlns="http://www.w3.org/2000/svg" xmlns:xlink="http://www.w3.org/1999/xlink" x="0px" y="0px" width="416.438px"
	 height="201.899px" viewBox="0 0 416.438 201.899" style="enable-background:new 0 0 416.438 201.899;" xml:space="preserve">
<style type="text/css">
<![CDATA[
	.st0{fill:none;stroke:#ED2024;stroke-width:1.25;}
	.st1{fill:none;stroke:#000000;stroke-width:0.5;stroke-opacity:0.3922;stroke-dasharray:2,2;}
	.st2{enable-background:new    ;}
	.st3{fill:none;stroke:#000000;stroke-width:0.5;}
	.st4{fill:none;stroke:#000000;stroke-width:0.75;}
	.st5{fill:none;stroke:#000000;stroke-width:0.5;stroke-opacity:0.3922;}
	.st6{opacity:0.5;fill:none;stroke:#3953A4;stroke-dasharray:2,2;enable-background:new    ;}
]]>
</style>
<metadata>
	<sfw  xmlns="&ns_sfw;">
		<slices></slices>
		<sliceSourceBounds  y="0.646" x="5.281" width="410.042" height="201.898" bottomLeftOrigin="true"></sliceSourceBounds>
	</sfw>
</metadata>
<g id="Axis">
	<path id="Zaxis" class="st5" d="M0.665,100.949h399.229"/>
	<path id="ZEqualZero" class="st1" d="M200.279,144.11v-43.16"/>
	<path id="MinusZ0" class="st1" d="M133.666,144.11v-43.16"/>
</g>
<g id="Beam">
	<path id="BottomBeamLine" class="st0" d="M0.279,0.559c199.918,99.776,200.379,99.897,400,0"/>
	<path id="TopBeamLine" class="st0" d="M0.279,201.338c199.918-99.776,200.379-99.897,400,0"/>
</g>
<g id="Legends">
	<path id="Sqrt" d="M92.844,77.624h12.65l-0.075,0.592h-12.02l-2.647,16.517l-4.359-8.974l-1.74,0.8l-0.299-0.563L87,84.67
		l3.56,7.232L92.844,77.624z"/>
	<g class="st2">
		<path d="M110.501,93.076l-0.976-9.334h1.529l0.422,4.192l0.167,2.355c0.012,0.176,0.029,0.53,0.053,1.063
			c0.176-0.598,0.325-1.056,0.448-1.376c0.123-0.318,0.319-0.774,0.589-1.366l2.224-4.869h1.731l0.308,4.667
			c0.047,0.709,0.076,1.655,0.088,2.839c0.293-0.785,0.771-1.875,1.433-3.27l2.004-4.236h1.591l-4.562,9.334h-1.652l-0.352-5.476
			c-0.023-0.34-0.041-1.002-0.053-1.986c-0.24,0.627-0.524,1.304-0.853,2.03l-2.47,5.432H110.501z"/>
	</g>
	<g class="st2">
		<path d="M103.971,92.407v1.521h-8.517c-0.012-0.381,0.05-0.747,0.185-1.099c0.217-0.58,0.564-1.151,1.042-1.714
			s1.167-1.213,2.07-1.951c1.4-1.148,2.347-2.058,2.839-2.729c0.492-0.67,0.738-1.305,0.738-1.902c0-0.627-0.224-1.156-0.672-1.586
			c-0.448-0.432-1.033-0.646-1.753-0.646c-0.762,0-1.371,0.229-1.828,0.686s-0.688,1.09-0.694,1.898l-1.626-0.167
			c0.111-1.213,0.53-2.137,1.257-2.772s1.702-0.954,2.927-0.954c1.236,0,2.215,0.343,2.936,1.028s1.081,1.535,1.081,2.549
			c0,0.516-0.105,1.022-0.316,1.521s-0.561,1.022-1.05,1.573s-1.302,1.307-2.439,2.268c-0.949,0.797-1.559,1.338-1.828,1.621
			c-0.27,0.285-0.492,0.57-0.668,0.857H103.971z"/>
	</g>
	<g class="st2">
		<path d="M121.563,95.363c0-0.888,0.091-1.603,0.274-2.144c0.183-0.542,0.455-0.959,0.815-1.253s0.814-0.441,1.36-0.441
			c0.403,0,0.757,0.082,1.061,0.244c0.304,0.162,0.555,0.396,0.753,0.701c0.198,0.307,0.354,0.679,0.466,1.117
			c0.113,0.439,0.169,1.031,0.169,1.775c0,0.882-0.09,1.593-0.271,2.135c-0.181,0.541-0.452,0.96-0.812,1.255
			c-0.36,0.296-0.816,0.443-1.366,0.443c-0.724,0-1.293-0.26-1.706-0.778C121.811,97.792,121.563,96.774,121.563,95.363z
			 M122.511,95.363c0,1.233,0.145,2.055,0.433,2.463s0.645,0.612,1.068,0.612c0.424,0,0.78-0.205,1.068-0.615
			s0.433-1.229,0.433-2.46c0-1.236-0.145-2.058-0.433-2.464c-0.289-0.407-0.648-0.61-1.079-0.61c-0.423,0-0.762,0.18-1.015,0.538
			C122.67,93.285,122.511,94.13,122.511,95.363z"/>
	</g>
	<g class="st2">
		<path d="M177.178,93.076l-0.976-9.334h1.529l0.422,4.192l0.167,2.355c0.012,0.176,0.029,0.53,0.053,1.063
			c0.176-0.598,0.325-1.056,0.448-1.376c0.123-0.318,0.319-0.774,0.589-1.366l2.224-4.869h1.731l0.308,4.667
			c0.047,0.709,0.076,1.655,0.088,2.839c0.293-0.785,0.771-1.875,1.433-3.27l2.004-4.236h1.591l-4.562,9.334h-1.652l-0.352-5.476
			c-0.023-0.34-0.041-1.002-0.053-1.986c-0.24,0.627-0.524,1.304-0.853,2.03l-2.47,5.432H177.178z"/>
	</g>
	<g class="st2">
		<path d="M401.159,105.885l0.255-1.23l5.019-5.651c0.357-0.398,0.756-0.812,1.195-1.239c-0.756,0.076-1.298,0.114-1.626,0.114
			h-3.472l0.281-1.327h7.216l-0.211,1.002l-5.063,5.687c-0.287,0.322-0.715,0.765-1.283,1.327c0.885-0.053,1.491-0.079,1.819-0.079
			h3.674l-0.29,1.397H401.159z"/>
	</g>
	<g class="st2">
		<path d="M188.239,95.363c0-0.888,0.091-1.603,0.274-2.144c0.183-0.542,0.455-0.959,0.815-1.253s0.814-0.441,1.36-0.441
			c0.403,0,0.757,0.082,1.061,0.244c0.304,0.162,0.555,0.396,0.753,0.701c0.198,0.307,0.354,0.679,0.466,1.117
			c0.113,0.439,0.169,1.031,0.169,1.775c0,0.882-0.09,1.593-0.271,2.135c-0.181,0.541-0.452,0.96-0.812,1.255
			c-0.36,0.296-0.816,0.443-1.366,0.443c-0.724,0-1.293-0.26-1.706-0.778C188.487,97.792,188.239,96.774,188.239,95.363z
			 M189.187,95.363c0,1.233,0.145,2.055,0.433,2.463s0.645,0.612,1.068,0.612c0.424,0,0.78-0.205,1.068-0.615
			s0.433-1.229,0.433-2.46c0-1.236-0.145-2.058-0.433-2.464c-0.289-0.407-0.648-0.61-1.079-0.61c-0.423,0-0.762,0.18-1.015,0.538
			C189.346,93.285,189.187,94.13,189.187,95.363z"/>
	</g>
	<g class="st2">
		<path d="M365.393,63.11l-0.976-9.334h1.529l0.422,4.192l0.167,2.355c0.012,0.176,0.029,0.53,0.053,1.063
			c0.176-0.598,0.325-1.056,0.448-1.376c0.123-0.318,0.319-0.774,0.589-1.366l2.224-4.869h1.731l0.308,4.667
			c0.047,0.709,0.076,1.655,0.088,2.839c0.293-0.785,0.771-1.875,1.433-3.27l2.004-4.236h1.591l-4.562,9.334h-1.652l-0.352-5.476
			c-0.023-0.34-0.041-1.002-0.053-1.986c-0.24,0.627-0.524,1.304-0.853,2.03l-2.47,5.432H365.393z"/>
	</g>
	<g class="st2">
		<path d="M380.229,66.898c-0.873-1.102-1.611-2.391-2.215-3.867s-0.905-3.006-0.905-4.588c0-1.395,0.226-2.73,0.677-4.008
			c0.527-1.482,1.342-2.959,2.443-4.43h1.134c-0.709,1.219-1.178,2.089-1.406,2.61c-0.357,0.809-0.639,1.652-0.844,2.531
			c-0.252,1.096-0.378,2.197-0.378,3.305c0,2.818,0.876,5.634,2.628,8.446H380.229z"/>
	</g>
	<g class="st2">
		<path d="M382.365,63.11l0.255-1.23l5.019-5.651c0.357-0.398,0.756-0.812,1.195-1.239c-0.756,0.076-1.298,0.114-1.626,0.114h-3.472
			l0.281-1.327h7.216l-0.211,1.002l-5.063,5.687c-0.287,0.322-0.715,0.765-1.283,1.327c0.885-0.053,1.491-0.079,1.819-0.079h3.674
			l-0.29,1.397H382.365z"/>
	</g>
	<g class="st2">
		<path d="M393.237,66.898h-1.134c1.752-2.813,2.628-5.628,2.628-8.446c0-1.102-0.126-2.194-0.378-3.278
			c-0.199-0.879-0.478-1.723-0.835-2.531c-0.229-0.527-0.7-1.406-1.415-2.637h1.134c1.102,1.471,1.916,2.947,2.443,4.43
			c0.451,1.277,0.677,2.613,0.677,4.008c0,1.582-0.303,3.111-0.91,4.588C394.842,64.507,394.104,65.796,393.237,66.898z"/>
	</g>
	<g class="st2">
		<path d="M161.688,161.764l0.255-1.23l5.019-5.651c0.357-0.398,0.756-0.812,1.195-1.239c-0.756,0.076-1.298,0.114-1.626,0.114
			h-3.472l0.281-1.327h7.216l-0.211,1.002l-5.063,5.687c-0.287,0.322-0.715,0.765-1.283,1.327c0.885-0.053,1.491-0.079,1.819-0.079
			h3.674l-0.29,1.397H161.688z"/>
	</g>
	<g class="st2">
		<path d="M171.163,167.756v-7.512h3.331c0.669,0,1.178,0.067,1.527,0.202c0.348,0.135,0.627,0.373,0.835,0.715
			c0.208,0.342,0.313,0.719,0.313,1.133c0,0.532-0.173,0.981-0.518,1.348c-0.345,0.365-0.878,0.598-1.599,0.696
			c0.263,0.127,0.463,0.251,0.6,0.374c0.291,0.267,0.565,0.6,0.825,0.999l1.307,2.045h-1.25l-0.994-1.563
			c-0.29-0.451-0.529-0.796-0.717-1.035s-0.356-0.406-0.504-0.502c-0.149-0.096-0.3-0.163-0.454-0.2
			c-0.113-0.023-0.297-0.036-0.553-0.036h-1.153v3.336H171.163z M172.156,163.56h2.137c0.455,0,0.81-0.047,1.066-0.142
			c0.256-0.094,0.451-0.244,0.584-0.45c0.133-0.207,0.2-0.432,0.2-0.674c0-0.355-0.129-0.647-0.387-0.877
			c-0.258-0.229-0.665-0.343-1.222-0.343h-2.378V163.56z"/>
	</g>
</g>
<g id="Arrows">
	<g id="RayleighRangeArrow">
		<path id="path3729_5_" d="M142.28,150.799l-8.413-3.094l8.413-3.094C140.937,146.438,140.944,148.938,142.28,150.799z"/>
		<path id="path3732_7_" d="M191.867,144.608l8.412,3.096l-8.412,3.094C193.211,148.967,193.204,146.469,191.867,144.608z"/>
		<path id="path3755_9_" class="st4" d="M133.666,145.801v3.711"/>
		<path id="path3755_8_" class="st4" d="M200.175,145.803v3.711"/>
		<line id="line66" class="st4" x1="137.146" y1="147.661" x2="197.052" y2="147.661"/>
	</g>
	<g id="WidthAtZRArrow">
		<path id="path3729_2_" d="M130.571,70.371l3.094-8.413l3.094,8.413C134.934,69.026,132.435,69.034,130.571,70.371z"/>
		<path id="path3732_2_" d="M136.758,92.537l-3.093,8.412l-3.094-8.412C132.398,93.88,134.897,93.873,136.758,92.537z"/>
		<path id="path3755_1_" class="st4" d="M131.811,62.237h3.711"/>
		<path id="path3755_2_" class="st4" d="M131.811,100.949h3.711"/>
		<line id="line73" class="st4" x1="133.666" y1="97.341" x2="133.666" y2="65.433"/>
	</g>
	<g id="BeamWaistArrow">
		<path id="path3755_4_" class="st4" d="M198.424,75.437h3.71"/>
		<path id="path3755_3_" class="st4" d="M198.424,100.949h3.71"/>
		<path id="path3729" d="M197.188,83.848l3.092-8.412l3.094,8.412C201.547,82.505,199.048,82.512,197.188,83.848z"/>
		<path id="path3732" d="M203.373,92.535l-3.094,8.414l-3.094-8.414C199.012,93.878,201.512,93.871,203.373,92.535z"/>
		<line id="line80" class="st4" x1="200.279" y1="97.467" x2="200.279" y2="80.561"/>
	</g>
	<g id="WidthFunctionArrow">
		<path id="path3729_1_" d="M350.258,32.269l3.094-8.413l3.098,8.413C354.619,30.925,352.119,30.933,350.258,32.269z"/>
		<path id="path3732_1_" d="M356.444,92.742l-3.098,8.41l-3.095-8.41C352.086,94.085,354.584,94.078,356.444,92.742z"/>
		<line id="line85" class="st4" x1="353.352" y1="96.419" x2="353.352" y2="29.575"/>
		<path id="path3755_5_" class="st4" d="M351.496,100.949h3.711"/>
		<path id="path3755_10_" class="st4" d="M351.496,24.129h3.711"/>
	</g>
	<path id="ZAxisArrow" d="M392.586,97.854l8.412,3.096l-8.412,3.093C393.931,102.215,393.922,99.717,392.586,97.854z"/>
</g>
</svg>
