<?xml version="1.0" encoding="utf-8" standalone="no"?>
<!DOCTYPE svg PUBLIC "-//W3C//DTD SVG 1.1//EN"
  "http://www.w3.org/Graphics/SVG/1.1/DTD/svg11.dtd">
<svg xmlns:xlink="http://www.w3.org/1999/xlink" width="378.991pt" height="300.96375pt" viewBox="0 0 378.991 300.96375" xmlns="http://www.w3.org/2000/svg" version="1.1">
 <metadata>
  <rdf:RDF xmlns:dc="http://purl.org/dc/elements/1.1/" xmlns:cc="http://creativecommons.org/ns#" xmlns:rdf="http://www.w3.org/1999/02/22-rdf-syntax-ns#">
   <cc:Work>
    <dc:type rdf:resource="http://purl.org/dc/dcmitype/StillImage"/>
    <dc:date>2022-05-27T14:12:47.683657</dc:date>
    <dc:format>image/svg+xml</dc:format>
    <dc:creator>
     <cc:Agent>
      <dc:title>Matplotlib v3.5.1, https://matplotlib.org/</dc:title>
     </cc:Agent>
    </dc:creator>
   </cc:Work>
  </rdf:RDF>
 </metadata>
 <defs>
  <style type="text/css">*{stroke-linejoin: round; stroke-linecap: butt}</style>
 </defs>
 <g id="figure_1">
  <g id="patch_1">
   <path d="M -0 300.96375 
L 378.991 300.96375 
L 378.991 0 
L -0 0 
z
" style="fill: #ffffff"/>
  </g>
  <g id="axes_1">
   <g id="patch_2">
    <path d="M 46.4 263.680938 
L 291.02 263.680938 
L 291.02 19.060938 
L 46.4 19.060938 
z
" style="fill: #ffffff"/>
   </g>
   <g id="PathCollection_1">
    <path d="M 168.71 141.458302 
L 168.797386 141.370937 
L 168.71 141.283573 
L 168.622614 141.370937 
z
M 168.71 141.370937 
z
" clip-path="url(#pa1c69529a5)" style="fill: #470e61"/>
   </g>
   <g id="PathCollection_2">
    <path d="M 168.71 141.545667 
L 168.884772 141.370937 
L 168.71 141.196209 
L 168.535228 141.370937 
z
M 168.622614 141.370937 
L 168.71 141.283573 
L 168.797386 141.370937 
L 168.71 141.458302 
z
" clip-path="url(#pa1c69529a5)" style="fill: #482677"/>
   </g>
   <g id="PathCollection_3">
    <path d="M 168.71 141.633032 
L 168.972157 141.370937 
L 168.71 141.108845 
L 168.447843 141.370937 
z
M 168.535228 141.370937 
L 168.71 141.196209 
L 168.884772 141.370937 
L 168.71 141.545667 
z
" clip-path="url(#pa1c69529a5)" style="fill: #433d84"/>
   </g>
   <g id="PathCollection_4">
    <path d="M 168.71 141.720397 
L 169.059543 141.370937 
L 168.71 141.02148 
L 168.360457 141.370937 
z
M 168.447843 141.370937 
L 168.71 141.108845 
L 168.972157 141.370937 
L 168.71 141.633032 
z
" clip-path="url(#pa1c69529a5)" style="fill: #3b528b"/>
   </g>
   <g id="PathCollection_5">
    <path d="M 168.71 141.807762 
L 169.146929 141.370937 
L 168.71 140.934116 
L 168.273071 141.370937 
z
M 168.360457 141.370937 
L 168.71 141.02148 
L 169.059543 141.370937 
L 168.71 141.720397 
z
" clip-path="url(#pa1c69529a5)" style="fill: #32658e"/>
   </g>
   <g id="PathCollection_6">
    <path d="M 168.71 141.895127 
L 169.234315 141.370937 
L 168.71 140.846752 
L 168.185685 141.370937 
z
M 168.273071 141.370937 
L 168.71 140.934116 
L 169.146929 141.370937 
L 168.71 141.807762 
z
" clip-path="url(#pa1c69529a5)" style="fill: #2a768e"/>
   </g>
   <g id="PathCollection_7">
    <path d="M 168.71 141.982492 
L 169.321701 141.370937 
L 168.71 140.759388 
L 168.098299 141.370937 
z
M 168.185685 141.370937 
L 168.71 140.846752 
L 169.234315 141.370937 
L 168.71 141.895127 
z
" clip-path="url(#pa1c69529a5)" style="fill: #24878e"/>
   </g>
   <g id="PathCollection_8">
    <path d="M 168.71 142.069857 
L 169.409087 141.370937 
L 168.71 140.672023 
L 168.010913 141.370937 
z
M 168.098299 141.370937 
L 168.71 140.759388 
L 169.321701 141.370937 
L 168.71 141.982492 
z
" clip-path="url(#pa1c69529a5)" style="fill: #1f998a"/>
   </g>
   <g id="PathCollection_9">
    <path d="M 168.71 142.157222 
L 169.496472 141.370937 
L 168.71 140.584659 
L 167.923528 141.370937 
z
M 168.010913 141.370937 
L 168.71 140.672023 
L 169.409087 141.370937 
L 168.71 142.069857 
z
" clip-path="url(#pa1c69529a5)" style="fill: #24aa83"/>
   </g>
   <g id="PathCollection_10">
    <path d="M 168.71 142.244587 
L 169.583858 141.370937 
L 168.71 140.497295 
L 167.836142 141.370937 
z
M 167.923528 141.370937 
L 168.71 140.584659 
L 169.496472 141.370937 
L 168.71 142.157222 
z
" clip-path="url(#pa1c69529a5)" style="fill: #3aba76"/>
   </g>
   <g id="PathCollection_11">
    <path d="M 168.71 142.331952 
L 169.671244 141.370937 
L 168.71 140.40993 
L 167.748756 141.370937 
z
M 167.836142 141.370937 
L 168.71 140.497295 
L 169.583858 141.370937 
L 168.71 142.244587 
z
" clip-path="url(#pa1c69529a5)" style="fill: #5cc863"/>
   </g>
   <g id="PathCollection_12">
    <path d="M 168.71 142.419317 
L 169.75863 141.370937 
L 168.71 140.322566 
L 167.66137 141.370937 
z
M 167.748756 141.370937 
L 168.71 140.40993 
L 169.671244 141.370937 
L 168.71 142.331952 
z
" clip-path="url(#pa1c69529a5)" style="fill: #89d548"/>
   </g>
   <g id="PathCollection_13">
    <path d="M 168.71 142.506682 
L 169.846016 141.370937 
L 168.71 140.235202 
L 167.573984 141.370937 
z
M 167.66137 141.370937 
L 168.71 140.322566 
L 169.75863 141.370937 
L 168.71 142.419317 
z
" clip-path="url(#pa1c69529a5)" style="fill: #b8de29"/>
   </g>
   <g id="PathCollection_14">
    <path d="M 47.6231 263.680937 
L 48.8462 263.680937 
L 50.0693 263.680937 
L 51.2924 263.680937 
L 52.5155 263.680937 
L 53.7386 263.680937 
L 54.9617 263.680937 
L 56.1848 263.680937 
L 57.4079 263.680937 
L 58.631 263.680937 
L 59.8541 263.680937 
L 61.0772 263.680937 
L 62.3003 263.680937 
L 63.5234 263.680937 
L 64.7465 263.680937 
L 65.9696 263.680937 
L 67.1927 263.680937 
L 68.4158 263.680937 
L 69.6389 263.680937 
L 70.862 263.680937 
L 72.0851 263.680937 
L 73.3082 263.680937 
L 74.5313 263.680937 
L 75.7544 263.680937 
L 76.9775 263.680937 
L 78.2006 263.680937 
L 79.4237 263.680937 
L 80.6468 263.680937 
L 81.8699 263.680937 
L 83.093 263.680937 
L 84.3161 263.680937 
L 85.5392 263.680937 
L 86.7623 263.680937 
L 87.9854 263.680937 
L 89.2085 263.680937 
L 90.4316 263.680937 
L 91.6547 263.680937 
L 92.8778 263.680937 
L 94.1009 263.680937 
L 95.324 263.680937 
L 96.5471 263.680937 
L 97.7702 263.680937 
L 98.9933 263.680937 
L 100.2164 263.680937 
L 101.4395 263.680937 
L 102.6626 263.680937 
L 103.8857 263.680937 
L 105.1088 263.680937 
L 106.3319 263.680937 
L 107.555 263.680937 
L 108.7781 263.680937 
L 110.0012 263.680937 
L 111.2243 263.680937 
L 112.4474 263.680937 
L 113.6705 263.680937 
L 114.8936 263.680937 
L 116.1167 263.680937 
L 117.3398 263.680937 
L 118.5629 263.680937 
L 119.786 263.680937 
L 121.0091 263.680937 
L 122.2322 263.680937 
L 123.4553 263.680937 
L 124.6784 263.680937 
L 125.9015 263.680937 
L 127.1246 263.680937 
L 128.3477 263.680937 
L 129.5708 263.680937 
L 130.7939 263.680937 
L 132.017 263.680937 
L 133.2401 263.680937 
L 134.4632 263.680937 
L 135.6863 263.680937 
L 136.9094 263.680937 
L 138.1325 263.680937 
L 139.3556 263.680937 
L 140.5787 263.680937 
L 141.8018 263.680937 
L 143.0249 263.680937 
L 144.248 263.680937 
L 145.4711 263.680937 
L 146.6942 263.680937 
L 147.9173 263.680937 
L 149.1404 263.680937 
L 150.3635 263.680937 
L 151.5866 263.680937 
L 152.8097 263.680937 
L 154.0328 263.680937 
L 155.2559 263.680937 
L 156.479 263.680937 
L 157.7021 263.680937 
L 158.9252 263.680937 
L 160.1483 263.680937 
L 161.3714 263.680937 
L 162.5945 263.680937 
L 163.8176 263.680937 
L 165.0407 263.680937 
L 166.2638 263.680937 
L 167.4869 263.680937 
L 168.71 263.680937 
L 169.9331 263.680937 
L 171.1562 263.680937 
L 172.3793 263.680937 
L 173.6024 263.680937 
L 174.8255 263.680937 
L 176.0486 263.680937 
L 177.2717 263.680937 
L 178.4948 263.680937 
L 179.7179 263.680937 
L 180.941 263.680937 
L 182.1641 263.680937 
L 183.3872 263.680937 
L 184.6103 263.680937 
L 185.8334 263.680937 
L 187.0565 263.680937 
L 188.2796 263.680937 
L 189.5027 263.680937 
L 190.7258 263.680937 
L 191.9489 263.680937 
L 193.172 263.680937 
L 194.3951 263.680937 
L 195.6182 263.680937 
L 196.8413 263.680937 
L 198.0644 263.680937 
L 199.2875 263.680937 
L 200.5106 263.680937 
L 201.7337 263.680937 
L 202.9568 263.680937 
L 204.1799 263.680937 
L 205.403 263.680937 
L 206.6261 263.680937 
L 207.8492 263.680937 
L 209.0723 263.680937 
L 210.2954 263.680937 
L 211.5185 263.680937 
L 212.7416 263.680937 
L 213.9647 263.680937 
L 215.1878 263.680937 
L 216.4109 263.680937 
L 217.634 263.680937 
L 218.8571 263.680937 
L 220.0802 263.680937 
L 221.3033 263.680937 
L 222.5264 263.680937 
L 223.7495 263.680937 
L 224.9726 263.680937 
L 226.1957 263.680937 
L 227.4188 263.680937 
L 228.6419 263.680937 
L 229.865 263.680937 
L 231.0881 263.680937 
L 232.3112 263.680937 
L 233.5343 263.680937 
L 234.7574 263.680937 
L 235.9805 263.680937 
L 237.2036 263.680937 
L 238.4267 263.680937 
L 239.6498 263.680937 
L 240.8729 263.680937 
L 242.096 263.680937 
L 243.3191 263.680937 
L 244.5422 263.680937 
L 245.7653 263.680937 
L 246.9884 263.680937 
L 248.2115 263.680937 
L 249.4346 263.680937 
L 250.6577 263.680937 
L 251.8808 263.680937 
L 253.1039 263.680937 
L 254.327 263.680937 
L 255.5501 263.680937 
L 256.7732 263.680937 
L 257.9963 263.680937 
L 259.2194 263.680937 
L 260.4425 263.680937 
L 261.6656 263.680937 
L 262.8887 263.680937 
L 264.1118 263.680937 
L 265.3349 263.680937 
L 266.558 263.680937 
L 267.7811 263.680937 
L 269.0042 263.680937 
L 270.2273 263.680937 
L 271.4504 263.680937 
L 272.6735 263.680937 
L 273.8966 263.680937 
L 275.1197 263.680937 
L 276.3428 263.680937 
L 277.5659 263.680937 
L 278.789 263.680937 
L 280.0121 263.680937 
L 281.2352 263.680937 
L 282.4583 263.680937 
L 283.6814 263.680937 
L 284.9045 263.680937 
L 286.1276 263.680937 
L 287.3507 263.680937 
L 288.5738 263.680937 
L 289.7969 263.680937 
L 291.02 263.680937 
L 291.02 262.457837 
L 291.02 261.234737 
L 291.02 260.011638 
L 291.02 258.788537 
L 291.02 257.565437 
L 291.02 256.342337 
L 291.02 255.119237 
L 291.02 253.896138 
L 291.02 252.673037 
L 291.02 251.449937 
L 291.02 250.226837 
L 291.02 249.003737 
L 291.02 247.780637 
L 291.02 246.557537 
L 291.02 245.334437 
L 291.02 244.111337 
L 291.02 242.888238 
L 291.02 241.665137 
L 291.02 240.442037 
L 291.02 239.218937 
L 291.02 237.995837 
L 291.02 236.772738 
L 291.02 235.549637 
L 291.02 234.326537 
L 291.02 233.103437 
L 291.02 231.880337 
L 291.02 230.657238 
L 291.02 229.434137 
L 291.02 228.211037 
L 291.02 226.987937 
L 291.02 225.764837 
L 291.02 224.541738 
L 291.02 223.318637 
L 291.02 222.095537 
L 291.02 220.872437 
L 291.02 219.649338 
L 291.02 218.426237 
L 291.02 217.203137 
L 291.02 215.980037 
L 291.02 214.756937 
L 291.02 213.533838 
L 291.02 212.310737 
L 291.02 211.087637 
L 291.02 209.864537 
L 291.02 208.641437 
L 291.02 207.418338 
L 291.02 206.195237 
L 291.02 204.972138 
L 291.02 203.749037 
L 291.02 202.525937 
L 291.02 201.302838 
L 291.02 200.079737 
L 291.02 198.856637 
L 291.02 197.633537 
L 291.02 196.410438 
L 291.02 195.187337 
L 291.02 193.964237 
L 291.02 192.741137 
L 291.02 191.518037 
L 291.02 190.294938 
L 291.02 189.071837 
L 291.02 187.848737 
L 291.02 186.625637 
L 291.02 185.402537 
L 291.02 184.179438 
L 291.02 182.956337 
L 291.02 181.733238 
L 291.02 180.510137 
L 291.02 179.287037 
L 291.02 178.063938 
L 291.02 176.840837 
L 291.02 175.617738 
L 291.02 174.394637 
L 291.02 173.171537 
L 291.02 171.948437 
L 291.02 170.725337 
L 291.02 169.502238 
L 291.02 168.279137 
L 291.02 167.056038 
L 291.02 165.832937 
L 291.02 164.609837 
L 291.02 163.386737 
L 291.02 162.163637 
L 291.02 160.940538 
L 291.02 159.717437 
L 291.02 158.494338 
L 291.02 157.271237 
L 291.02 156.048137 
L 291.02 154.825038 
L 291.02 153.601937 
L 291.02 152.378838 
L 291.02 151.155737 
L 291.02 149.932637 
L 291.02 148.709538 
L 291.02 147.486437 
L 291.02 146.263338 
L 291.02 145.040237 
L 291.02 143.817138 
L 291.02 142.594037 
L 291.02 141.370937 
L 291.02 140.147838 
L 291.02 138.924737 
L 291.02 137.701638 
L 291.02 136.478537 
L 291.02 135.255437 
L 291.02 134.032337 
L 291.02 132.809237 
L 291.02 131.586138 
L 291.02 130.363037 
L 291.02 129.139938 
L 291.02 127.916837 
L 291.02 126.693737 
L 291.02 125.470637 
L 291.02 124.247537 
L 291.02 123.024438 
L 291.02 121.801338 
L 291.02 120.578238 
L 291.02 119.355137 
L 291.02 118.132037 
L 291.02 116.908937 
L 291.02 115.685837 
L 291.02 114.462738 
L 291.02 113.239638 
L 291.02 112.016537 
L 291.02 110.793437 
L 291.02 109.570337 
L 291.02 108.347238 
L 291.02 107.124137 
L 291.02 105.901038 
L 291.02 104.677937 
L 291.02 103.454837 
L 291.02 102.231738 
L 291.02 101.008637 
L 291.02 99.785538 
L 291.02 98.562438 
L 291.02 97.339337 
L 291.02 96.116237 
L 291.02 94.893137 
L 291.02 93.670038 
L 291.02 92.446937 
L 291.02 91.223838 
L 291.02 90.000737 
L 291.02 88.777637 
L 291.02 87.554538 
L 291.02 86.331437 
L 291.02 85.108338 
L 291.02 83.885238 
L 291.02 82.662138 
L 291.02 81.439037 
L 291.02 80.215937 
L 291.02 78.992838 
L 291.02 77.769737 
L 291.02 76.546638 
L 291.02 75.323538 
L 291.02 74.100437 
L 291.02 72.877337 
L 291.02 71.654238 
L 291.02 70.431138 
L 291.02 69.208038 
L 291.02 67.984938 
L 291.02 66.761837 
L 291.02 65.538737 
L 291.02 64.315638 
L 291.02 63.092538 
L 291.02 61.869438 
L 291.02 60.646338 
L 291.02 59.423237 
L 291.02 58.200137 
L 291.02 56.977038 
L 291.02 55.753938 
L 291.02 54.530838 
L 291.02 53.307738 
L 291.02 52.084637 
L 291.02 50.861537 
L 291.02 49.638438 
L 291.02 48.415338 
L 291.02 47.192238 
L 291.02 45.969138 
L 291.02 44.746037 
L 291.02 43.522937 
L 291.02 42.299838 
L 291.02 41.076738 
L 291.02 39.853638 
L 291.02 38.630538 
L 291.02 37.407438 
L 291.02 36.184337 
L 291.02 34.961238 
L 291.02 33.738138 
L 291.02 32.515038 
L 291.02 31.291938 
L 291.02 30.068838 
L 291.02 28.845737 
L 291.02 27.622638 
L 291.02 26.399538 
L 291.02 25.176438 
L 291.02 23.953338 
L 291.02 22.730238 
L 291.02 21.507137 
L 291.02 20.284038 
L 291.02 19.060938 
L 289.7969 19.060938 
L 288.5738 19.060938 
L 287.3507 19.060938 
L 286.1276 19.060938 
L 284.9045 19.060938 
L 283.6814 19.060938 
L 282.4583 19.060938 
L 281.2352 19.060938 
L 280.0121 19.060938 
L 278.789 19.060938 
L 277.5659 19.060938 
L 276.3428 19.060938 
L 275.1197 19.060938 
L 273.8966 19.060938 
L 272.6735 19.060938 
L 271.4504 19.060938 
L 270.2273 19.060938 
L 269.0042 19.060938 
L 267.7811 19.060938 
L 266.558 19.060938 
L 265.3349 19.060938 
L 264.1118 19.060938 
L 262.8887 19.060938 
L 261.6656 19.060938 
L 260.4425 19.060938 
L 259.2194 19.060938 
L 257.9963 19.060938 
L 256.7732 19.060938 
L 255.5501 19.060938 
L 254.327 19.060938 
L 253.1039 19.060938 
L 251.8808 19.060938 
L 250.6577 19.060938 
L 249.4346 19.060938 
L 248.2115 19.060938 
L 246.9884 19.060938 
L 245.7653 19.060938 
L 244.5422 19.060938 
L 243.3191 19.060938 
L 242.096 19.060938 
L 240.8729 19.060938 
L 239.6498 19.060938 
L 238.4267 19.060938 
L 237.2036 19.060938 
L 235.9805 19.060938 
L 234.7574 19.060938 
L 233.5343 19.060938 
L 232.3112 19.060938 
L 231.0881 19.060938 
L 229.865 19.060938 
L 228.6419 19.060938 
L 227.4188 19.060938 
L 226.1957 19.060938 
L 224.9726 19.060938 
L 223.7495 19.060938 
L 222.5264 19.060938 
L 221.3033 19.060938 
L 220.0802 19.060938 
L 218.8571 19.060938 
L 217.634 19.060938 
L 216.4109 19.060938 
L 215.1878 19.060938 
L 213.9647 19.060938 
L 212.7416 19.060938 
L 211.5185 19.060938 
L 210.2954 19.060938 
L 209.0723 19.060938 
L 207.8492 19.060938 
L 206.6261 19.060938 
L 205.403 19.060938 
L 204.1799 19.060938 
L 202.9568 19.060938 
L 201.7337 19.060938 
L 200.5106 19.060938 
L 199.2875 19.060938 
L 198.0644 19.060938 
L 196.8413 19.060938 
L 195.6182 19.060938 
L 194.3951 19.060938 
L 193.172 19.060938 
L 191.9489 19.060938 
L 190.7258 19.060938 
L 189.5027 19.060938 
L 188.2796 19.060938 
L 187.0565 19.060938 
L 185.8334 19.060938 
L 184.6103 19.060938 
L 183.3872 19.060938 
L 182.1641 19.060938 
L 180.941 19.060938 
L 179.7179 19.060938 
L 178.4948 19.060938 
L 177.2717 19.060938 
L 176.0486 19.060938 
L 174.8255 19.060938 
L 173.6024 19.060938 
L 172.3793 19.060938 
L 171.1562 19.060938 
L 169.9331 19.060938 
L 168.71 19.060938 
L 167.4869 19.060938 
L 166.2638 19.060938 
L 165.0407 19.060938 
L 163.8176 19.060938 
L 162.5945 19.060938 
L 161.3714 19.060938 
L 160.1483 19.060938 
L 158.9252 19.060938 
L 157.7021 19.060938 
L 156.479 19.060938 
L 155.2559 19.060938 
L 154.0328 19.060938 
L 152.8097 19.060938 
L 151.5866 19.060938 
L 150.3635 19.060938 
L 149.1404 19.060938 
L 147.9173 19.060938 
L 146.6942 19.060938 
L 145.4711 19.060938 
L 144.248 19.060938 
L 143.0249 19.060938 
L 141.8018 19.060938 
L 140.5787 19.060938 
L 139.3556 19.060938 
L 138.1325 19.060938 
L 136.9094 19.060938 
L 135.6863 19.060938 
L 134.4632 19.060938 
L 133.2401 19.060938 
L 132.017 19.060938 
L 130.7939 19.060938 
L 129.5708 19.060938 
L 128.3477 19.060938 
L 127.1246 19.060938 
L 125.9015 19.060938 
L 124.6784 19.060938 
L 123.4553 19.060938 
L 122.2322 19.060938 
L 121.0091 19.060938 
L 119.786 19.060938 
L 118.5629 19.060938 
L 117.3398 19.060938 
L 116.1167 19.060938 
L 114.8936 19.060938 
L 113.6705 19.060938 
L 112.4474 19.060938 
L 111.2243 19.060938 
L 110.0012 19.060938 
L 108.7781 19.060938 
L 107.555 19.060938 
L 106.3319 19.060938 
L 105.1088 19.060938 
L 103.8857 19.060938 
L 102.6626 19.060938 
L 101.4395 19.060938 
L 100.2164 19.060938 
L 98.9933 19.060938 
L 97.7702 19.060938 
L 96.5471 19.060938 
L 95.324 19.060938 
L 94.1009 19.060938 
L 92.8778 19.060938 
L 91.6547 19.060938 
L 90.4316 19.060938 
L 89.2085 19.060938 
L 87.9854 19.060938 
L 86.7623 19.060938 
L 85.5392 19.060938 
L 84.3161 19.060938 
L 83.093 19.060938 
L 81.8699 19.060938 
L 80.6468 19.060938 
L 79.4237 19.060938 
L 78.2006 19.060938 
L 76.9775 19.060938 
L 75.7544 19.060938 
L 74.5313 19.060938 
L 73.3082 19.060938 
L 72.0851 19.060938 
L 70.862 19.060938 
L 69.6389 19.060938 
L 68.4158 19.060938 
L 67.1927 19.060938 
L 65.9696 19.060938 
L 64.7465 19.060938 
L 63.5234 19.060938 
L 62.3003 19.060938 
L 61.0772 19.060938 
L 59.8541 19.060938 
L 58.631 19.060938 
L 57.4079 19.060938 
L 56.1848 19.060938 
L 54.9617 19.060938 
L 53.7386 19.060938 
L 52.5155 19.060938 
L 51.2924 19.060938 
L 50.0693 19.060938 
L 48.8462 19.060938 
L 47.6231 19.060938 
L 46.4 19.060938 
L 46.4 20.284038 
L 46.4 21.507137 
L 46.4 22.730238 
L 46.4 23.953338 
L 46.4 25.176438 
L 46.4 26.399538 
L 46.4 27.622638 
L 46.4 28.845737 
L 46.4 30.068838 
L 46.4 31.291938 
L 46.4 32.515038 
L 46.4 33.738138 
L 46.4 34.961238 
L 46.4 36.184337 
L 46.4 37.407438 
L 46.4 38.630538 
L 46.4 39.853638 
L 46.4 41.076738 
L 46.4 42.299838 
L 46.4 43.522937 
L 46.4 44.746037 
L 46.4 45.969138 
L 46.4 47.192238 
L 46.4 48.415338 
L 46.4 49.638438 
L 46.4 50.861537 
L 46.4 52.084637 
L 46.4 53.307738 
L 46.4 54.530838 
L 46.4 55.753938 
L 46.4 56.977038 
L 46.4 58.200137 
L 46.4 59.423237 
L 46.4 60.646338 
L 46.4 61.869438 
L 46.4 63.092538 
L 46.4 64.315638 
L 46.4 65.538737 
L 46.4 66.761837 
L 46.4 67.984938 
L 46.4 69.208038 
L 46.4 70.431138 
L 46.4 71.654238 
L 46.4 72.877337 
L 46.4 74.100437 
L 46.4 75.323538 
L 46.4 76.546638 
L 46.4 77.769737 
L 46.4 78.992838 
L 46.4 80.215937 
L 46.4 81.439037 
L 46.4 82.662138 
L 46.4 83.885238 
L 46.4 85.108338 
L 46.4 86.331437 
L 46.4 87.554538 
L 46.4 88.777637 
L 46.4 90.000737 
L 46.4 91.223838 
L 46.4 92.446937 
L 46.4 93.670038 
L 46.4 94.893137 
L 46.4 96.116237 
L 46.4 97.339337 
L 46.4 98.562438 
L 46.4 99.785538 
L 46.4 101.008637 
L 46.4 102.231738 
L 46.4 103.454837 
L 46.4 104.677937 
L 46.4 105.901038 
L 46.4 107.124137 
L 46.4 108.347238 
L 46.4 109.570337 
L 46.4 110.793437 
L 46.4 112.016537 
L 46.4 113.239638 
L 46.4 114.462738 
L 46.4 115.685837 
L 46.4 116.908937 
L 46.4 118.132037 
L 46.4 119.355137 
L 46.4 120.578238 
L 46.4 121.801338 
L 46.4 123.024438 
L 46.4 124.247537 
L 46.4 125.470637 
L 46.4 126.693737 
L 46.4 127.916837 
L 46.4 129.139938 
L 46.4 130.363037 
L 46.4 131.586138 
L 46.4 132.809237 
L 46.4 134.032337 
L 46.4 135.255437 
L 46.4 136.478537 
L 46.4 137.701638 
L 46.4 138.924737 
L 46.4 140.147838 
L 46.4 141.370937 
L 46.4 142.594037 
L 46.4 143.817138 
L 46.4 145.040237 
L 46.4 146.263338 
L 46.4 147.486437 
L 46.4 148.709538 
L 46.4 149.932637 
L 46.4 151.155737 
L 46.4 152.378838 
L 46.4 153.601937 
L 46.4 154.825038 
L 46.4 156.048137 
L 46.4 157.271237 
L 46.4 158.494338 
L 46.4 159.717437 
L 46.4 160.940538 
L 46.4 162.163637 
L 46.4 163.386737 
L 46.4 164.609837 
L 46.4 165.832937 
L 46.4 167.056038 
L 46.4 168.279137 
L 46.4 169.502238 
L 46.4 170.725337 
L 46.4 171.948437 
L 46.4 173.171537 
L 46.4 174.394637 
L 46.4 175.617738 
L 46.4 176.840837 
L 46.4 178.063938 
L 46.4 179.287037 
L 46.4 180.510137 
L 46.4 181.733238 
L 46.4 182.956337 
L 46.4 184.179438 
L 46.4 185.402537 
L 46.4 186.625637 
L 46.4 187.848737 
L 46.4 189.071837 
L 46.4 190.294938 
L 46.4 191.518037 
L 46.4 192.741137 
L 46.4 193.964237 
L 46.4 195.187337 
L 46.4 196.410438 
L 46.4 197.633537 
L 46.4 198.856637 
L 46.4 200.079737 
L 46.4 201.302838 
L 46.4 202.525937 
L 46.4 203.749037 
L 46.4 204.972138 
L 46.4 206.195237 
L 46.4 207.418338 
L 46.4 208.641437 
L 46.4 209.864537 
L 46.4 211.087637 
L 46.4 212.310737 
L 46.4 213.533838 
L 46.4 214.756937 
L 46.4 215.980037 
L 46.4 217.203137 
L 46.4 218.426237 
L 46.4 219.649338 
L 46.4 220.872437 
L 46.4 222.095537 
L 46.4 223.318637 
L 46.4 224.541738 
L 46.4 225.764837 
L 46.4 226.987937 
L 46.4 228.211037 
L 46.4 229.434137 
L 46.4 230.657238 
L 46.4 231.880337 
L 46.4 233.103437 
L 46.4 234.326537 
L 46.4 235.549637 
L 46.4 236.772738 
L 46.4 237.995837 
L 46.4 239.218937 
L 46.4 240.442037 
L 46.4 241.665137 
L 46.4 242.888238 
L 46.4 244.111337 
L 46.4 245.334437 
L 46.4 246.557537 
L 46.4 247.780637 
L 46.4 249.003737 
L 46.4 250.226837 
L 46.4 251.449937 
L 46.4 252.673037 
L 46.4 253.896138 
L 46.4 255.119237 
L 46.4 256.342337 
L 46.4 257.565437 
L 46.4 258.788537 
L 46.4 260.011638 
L 46.4 261.234737 
L 46.4 262.457837 
L 46.4 263.680937 
z
M 167.573984 141.370937 
L 168.71 140.235202 
L 169.846016 141.370937 
L 168.71 142.506682 
z
" clip-path="url(#pa1c69529a5)" style="fill: #e7e419"/>
   </g>
   <g id="matplotlib.axis_1">
    <g id="xtick_1">
     <g id="line2d_1">
      <defs>
       <path id="m12d2354c37" d="M 0 0 
L 0 3.5 
" style="stroke: #000000; stroke-width: 0.8"/>
      </defs>
      <g>
       <use xlink:href="#m12d2354c37" x="46.4" y="263.680938" style="stroke: #000000; stroke-width: 0.8"/>
      </g>
     </g>
     <g id="text_1">
      <!-- $\mathdefault{−2.0}$ -->
      <g transform="translate(37.3 277.624687)scale(0.1 -0.1)">
       <defs>
        <path id="TimesNewRomanPSMT-2212" d="M 3484 2000 
L 116 2000 
L 116 2256 
L 3484 2256 
L 3484 2000 
z
" transform="scale(0.015625)"/>
        <path id="TimesNewRomanPSMT-32" d="M 2934 816 
L 2638 0 
L 138 0 
L 138 116 
Q 1241 1122 1691 1759 
Q 2141 2397 2141 2925 
Q 2141 3328 1894 3587 
Q 1647 3847 1303 3847 
Q 991 3847 742 3664 
Q 494 3481 375 3128 
L 259 3128 
Q 338 3706 661 4015 
Q 984 4325 1469 4325 
Q 1984 4325 2329 3994 
Q 2675 3663 2675 3213 
Q 2675 2891 2525 2569 
Q 2294 2063 1775 1497 
Q 997 647 803 472 
L 1909 472 
Q 2247 472 2383 497 
Q 2519 522 2628 598 
Q 2738 675 2819 816 
L 2934 816 
z
" transform="scale(0.015625)"/>
        <path id="TimesNewRomanPSMT-2e" d="M 800 606 
Q 947 606 1047 504 
Q 1147 403 1147 259 
Q 1147 116 1045 14 
Q 944 -88 800 -88 
Q 656 -88 554 14 
Q 453 116 453 259 
Q 453 406 554 506 
Q 656 606 800 606 
z
" transform="scale(0.015625)"/>
        <path id="TimesNewRomanPSMT-30" d="M 231 2094 
Q 231 2819 450 3342 
Q 669 3866 1031 4122 
Q 1313 4325 1613 4325 
Q 2100 4325 2488 3828 
Q 2972 3213 2972 2159 
Q 2972 1422 2759 906 
Q 2547 391 2217 158 
Q 1888 -75 1581 -75 
Q 975 -75 572 641 
Q 231 1244 231 2094 
z
M 844 2016 
Q 844 1141 1059 588 
Q 1238 122 1591 122 
Q 1759 122 1940 273 
Q 2122 425 2216 781 
Q 2359 1319 2359 2297 
Q 2359 3022 2209 3506 
Q 2097 3866 1919 4016 
Q 1791 4119 1609 4119 
Q 1397 4119 1231 3928 
Q 1006 3669 925 3112 
Q 844 2556 844 2016 
z
" transform="scale(0.015625)"/>
       </defs>
       <use xlink:href="#TimesNewRomanPSMT-2212" transform="translate(0 0.421875)"/>
       <use xlink:href="#TimesNewRomanPSMT-32" transform="translate(56.396484 0.421875)"/>
       <use xlink:href="#TimesNewRomanPSMT-2e" transform="translate(106.396484 0.421875)"/>
       <use xlink:href="#TimesNewRomanPSMT-30" transform="translate(131.396484 0.421875)"/>
      </g>
     </g>
    </g>
    <g id="xtick_2">
     <g id="line2d_2">
      <g>
       <use xlink:href="#m12d2354c37" x="76.9775" y="263.680938" style="stroke: #000000; stroke-width: 0.8"/>
      </g>
     </g>
     <g id="text_2">
      <!-- $\mathdefault{−1.5}$ -->
      <g transform="translate(67.8775 277.624687)scale(0.1 -0.1)">
       <defs>
        <path id="TimesNewRomanPSMT-31" d="M 750 3822 
L 1781 4325 
L 1884 4325 
L 1884 747 
Q 1884 391 1914 303 
Q 1944 216 2037 169 
Q 2131 122 2419 116 
L 2419 0 
L 825 0 
L 825 116 
Q 1125 122 1212 167 
Q 1300 213 1334 289 
Q 1369 366 1369 747 
L 1369 3034 
Q 1369 3497 1338 3628 
Q 1316 3728 1258 3775 
Q 1200 3822 1119 3822 
Q 1003 3822 797 3725 
L 750 3822 
z
" transform="scale(0.015625)"/>
        <path id="TimesNewRomanPSMT-35" d="M 2778 4238 
L 2534 3706 
L 1259 3706 
L 981 3138 
Q 1809 3016 2294 2522 
Q 2709 2097 2709 1522 
Q 2709 1188 2573 903 
Q 2438 619 2231 419 
Q 2025 219 1772 97 
Q 1413 -75 1034 -75 
Q 653 -75 479 54 
Q 306 184 306 341 
Q 306 428 378 495 
Q 450 563 559 563 
Q 641 563 702 538 
Q 763 513 909 409 
Q 1144 247 1384 247 
Q 1750 247 2026 523 
Q 2303 800 2303 1197 
Q 2303 1581 2056 1914 
Q 1809 2247 1375 2428 
Q 1034 2569 447 2591 
L 1259 4238 
L 2778 4238 
z
" transform="scale(0.015625)"/>
       </defs>
       <use xlink:href="#TimesNewRomanPSMT-2212" transform="translate(0 0.421875)"/>
       <use xlink:href="#TimesNewRomanPSMT-31" transform="translate(56.396484 0.421875)"/>
       <use xlink:href="#TimesNewRomanPSMT-2e" transform="translate(106.396484 0.421875)"/>
       <use xlink:href="#TimesNewRomanPSMT-35" transform="translate(131.396484 0.421875)"/>
      </g>
     </g>
    </g>
    <g id="xtick_3">
     <g id="line2d_3">
      <g>
       <use xlink:href="#m12d2354c37" x="107.555" y="263.680938" style="stroke: #000000; stroke-width: 0.8"/>
      </g>
     </g>
     <g id="text_3">
      <!-- $\mathdefault{−1.0}$ -->
      <g transform="translate(98.455 277.624687)scale(0.1 -0.1)">
       <use xlink:href="#TimesNewRomanPSMT-2212" transform="translate(0 0.421875)"/>
       <use xlink:href="#TimesNewRomanPSMT-31" transform="translate(56.396484 0.421875)"/>
       <use xlink:href="#TimesNewRomanPSMT-2e" transform="translate(106.396484 0.421875)"/>
       <use xlink:href="#TimesNewRomanPSMT-30" transform="translate(131.396484 0.421875)"/>
      </g>
     </g>
    </g>
    <g id="xtick_4">
     <g id="line2d_4">
      <g>
       <use xlink:href="#m12d2354c37" x="138.1325" y="263.680938" style="stroke: #000000; stroke-width: 0.8"/>
      </g>
     </g>
     <g id="text_4">
      <!-- $\mathdefault{−0.5}$ -->
      <g transform="translate(129.0325 277.624687)scale(0.1 -0.1)">
       <use xlink:href="#TimesNewRomanPSMT-2212" transform="translate(0 0.421875)"/>
       <use xlink:href="#TimesNewRomanPSMT-30" transform="translate(56.396484 0.421875)"/>
       <use xlink:href="#TimesNewRomanPSMT-2e" transform="translate(106.396484 0.421875)"/>
       <use xlink:href="#TimesNewRomanPSMT-35" transform="translate(131.396484 0.421875)"/>
      </g>
     </g>
    </g>
    <g id="xtick_5">
     <g id="line2d_5">
      <g>
       <use xlink:href="#m12d2354c37" x="168.71" y="263.680938" style="stroke: #000000; stroke-width: 0.8"/>
      </g>
     </g>
     <g id="text_5">
      <!-- $\mathdefault{0.0}$ -->
      <g transform="translate(162.46 277.624687)scale(0.1 -0.1)">
       <use xlink:href="#TimesNewRomanPSMT-30" transform="translate(0 0.421875)"/>
       <use xlink:href="#TimesNewRomanPSMT-2e" transform="translate(50 0.421875)"/>
       <use xlink:href="#TimesNewRomanPSMT-30" transform="translate(75 0.421875)"/>
      </g>
     </g>
    </g>
    <g id="xtick_6">
     <g id="line2d_6">
      <g>
       <use xlink:href="#m12d2354c37" x="199.2875" y="263.680938" style="stroke: #000000; stroke-width: 0.8"/>
      </g>
     </g>
     <g id="text_6">
      <!-- $\mathdefault{0.5}$ -->
      <g transform="translate(193.0375 277.624687)scale(0.1 -0.1)">
       <use xlink:href="#TimesNewRomanPSMT-30" transform="translate(0 0.421875)"/>
       <use xlink:href="#TimesNewRomanPSMT-2e" transform="translate(50 0.421875)"/>
       <use xlink:href="#TimesNewRomanPSMT-35" transform="translate(75 0.421875)"/>
      </g>
     </g>
    </g>
    <g id="xtick_7">
     <g id="line2d_7">
      <g>
       <use xlink:href="#m12d2354c37" x="229.865" y="263.680938" style="stroke: #000000; stroke-width: 0.8"/>
      </g>
     </g>
     <g id="text_7">
      <!-- $\mathdefault{1.0}$ -->
      <g transform="translate(223.615 277.624687)scale(0.1 -0.1)">
       <use xlink:href="#TimesNewRomanPSMT-31" transform="translate(0 0.421875)"/>
       <use xlink:href="#TimesNewRomanPSMT-2e" transform="translate(50 0.421875)"/>
       <use xlink:href="#TimesNewRomanPSMT-30" transform="translate(75 0.421875)"/>
      </g>
     </g>
    </g>
    <g id="xtick_8">
     <g id="line2d_8">
      <g>
       <use xlink:href="#m12d2354c37" x="260.4425" y="263.680938" style="stroke: #000000; stroke-width: 0.8"/>
      </g>
     </g>
     <g id="text_8">
      <!-- $\mathdefault{1.5}$ -->
      <g transform="translate(254.1925 277.624687)scale(0.1 -0.1)">
       <use xlink:href="#TimesNewRomanPSMT-31" transform="translate(0 0.421875)"/>
       <use xlink:href="#TimesNewRomanPSMT-2e" transform="translate(50 0.421875)"/>
       <use xlink:href="#TimesNewRomanPSMT-35" transform="translate(75 0.421875)"/>
      </g>
     </g>
    </g>
    <g id="xtick_9">
     <g id="line2d_9">
      <g>
       <use xlink:href="#m12d2354c37" x="291.02" y="263.680938" style="stroke: #000000; stroke-width: 0.8"/>
      </g>
     </g>
     <g id="text_9">
      <!-- $\mathdefault{2.0}$ -->
      <g transform="translate(284.77 277.624687)scale(0.1 -0.1)">
       <use xlink:href="#TimesNewRomanPSMT-32" transform="translate(0 0.421875)"/>
       <use xlink:href="#TimesNewRomanPSMT-2e" transform="translate(50 0.421875)"/>
       <use xlink:href="#TimesNewRomanPSMT-30" transform="translate(75 0.421875)"/>
      </g>
     </g>
    </g>
    <g id="text_10">
     <!-- $x\,/\,\mathrm{m}$ -->
     <g transform="translate(157.71 291.26375)scale(0.1 -0.1)">
      <defs>
       <path id="Cmmi10-78" d="M 500 184 
Q 613 97 819 97 
Q 1019 97 1172 289 
Q 1325 481 1381 709 
L 1672 1844 
Q 1741 2153 1741 2266 
Q 1741 2425 1652 2544 
Q 1563 2663 1403 2663 
Q 1200 2663 1022 2536 
Q 844 2409 722 2214 
Q 600 2019 550 1819 
Q 538 1778 500 1778 
L 422 1778 
Q 372 1778 372 1838 
L 372 1856 
Q 434 2094 584 2320 
Q 734 2547 951 2687 
Q 1169 2828 1416 2828 
Q 1650 2828 1839 2703 
Q 2028 2578 2106 2363 
Q 2216 2559 2386 2693 
Q 2556 2828 2759 2828 
Q 2897 2828 3040 2779 
Q 3184 2731 3275 2631 
Q 3366 2531 3366 2381 
Q 3366 2219 3261 2101 
Q 3156 1984 2994 1984 
Q 2891 1984 2822 2050 
Q 2753 2116 2753 2216 
Q 2753 2350 2845 2451 
Q 2938 2553 3066 2572 
Q 2950 2663 2747 2663 
Q 2541 2663 2389 2472 
Q 2238 2281 2175 2047 
L 1894 916 
Q 1825 659 1825 494 
Q 1825 331 1917 214 
Q 2009 97 2163 97 
Q 2463 97 2698 361 
Q 2934 625 3009 941 
Q 3022 978 3059 978 
L 3138 978 
Q 3163 978 3178 961 
Q 3194 944 3194 922 
Q 3194 916 3188 903 
Q 3097 522 2806 225 
Q 2516 -72 2150 -72 
Q 1916 -72 1727 54 
Q 1538 181 1459 397 
Q 1359 209 1182 68 
Q 1006 -72 806 -72 
Q 669 -72 523 -23 
Q 378 25 287 125 
Q 197 225 197 378 
Q 197 528 301 651 
Q 406 775 563 775 
Q 669 775 741 711 
Q 813 647 813 544 
Q 813 409 723 309 
Q 634 209 500 184 
z
" transform="scale(0.015625)"/>
       <path id="Cmmi10-3d" d="M 359 -1472 
Q 359 -1453 366 -1447 
L 2591 4722 
Q 2603 4759 2634 4779 
Q 2666 4800 2706 4800 
Q 2763 4800 2798 4765 
Q 2834 4731 2834 4672 
L 2834 4647 
L 609 -1522 
Q 572 -1600 488 -1600 
Q 434 -1600 396 -1562 
Q 359 -1525 359 -1472 
z
" transform="scale(0.015625)"/>
       <path id="Cmr10-6d" d="M 191 0 
L 191 225 
Q 409 225 550 259 
Q 691 294 691 428 
L 691 2175 
Q 691 2347 639 2423 
Q 588 2500 491 2517 
Q 394 2534 191 2534 
L 191 2759 
L 1119 2828 
L 1119 2203 
Q 1247 2478 1498 2653 
Q 1750 2828 2047 2828 
Q 2784 2828 2913 2228 
Q 3041 2497 3287 2662 
Q 3534 2828 3828 2828 
Q 4119 2828 4317 2734 
Q 4516 2641 4616 2448 
Q 4716 2256 4716 1966 
L 4716 428 
Q 4716 294 4858 259 
Q 5000 225 5216 225 
L 5216 0 
L 3750 0 
L 3750 225 
Q 3969 225 4109 259 
Q 4250 294 4250 428 
L 4250 1947 
Q 4250 2269 4159 2466 
Q 4069 2663 3788 2663 
Q 3419 2663 3178 2366 
Q 2938 2069 2938 1691 
L 2938 428 
Q 2938 294 3078 259 
Q 3219 225 3438 225 
L 3438 0 
L 1972 0 
L 1972 225 
Q 2191 225 2331 259 
Q 2472 294 2472 428 
L 2472 1947 
Q 2472 2259 2381 2461 
Q 2291 2663 2009 2663 
Q 1638 2663 1398 2366 
Q 1159 2069 1159 1691 
L 1159 428 
Q 1159 294 1300 259 
Q 1441 225 1656 225 
L 1656 0 
L 191 0 
z
" transform="scale(0.015625)"/>
      </defs>
      <use xlink:href="#Cmmi10-78"/>
      <use xlink:href="#Cmmi10-3d" transform="translate(71.712532 0)"/>
      <use xlink:href="#Cmr10-6d" transform="translate(136.344986 0)"/>
     </g>
    </g>
    <g id="text_11">
     <!-- $\times\mathdefault{10^{−6}}\mathdefault{}$ -->
     <g transform="translate(265.22 291.624687)scale(0.1 -0.1)">
      <defs>
       <path id="Cmsy10-a3" d="M 941 184 
Q 941 234 972 275 
L 2303 1600 
L 972 2931 
Q 941 2963 941 3016 
Q 941 3063 978 3103 
Q 1016 3144 1069 3144 
Q 1113 3144 1166 3103 
L 2491 1778 
L 3809 3103 
Q 3863 3144 3903 3144 
Q 3956 3144 3993 3106 
Q 4031 3069 4031 3016 
Q 4031 2963 4000 2931 
L 2669 1600 
L 4000 275 
Q 4031 234 4031 184 
Q 4031 131 3993 93 
Q 3956 56 3903 56 
Q 3856 56 3809 103 
L 2491 1422 
L 1166 103 
Q 1119 56 1069 56 
Q 1016 56 978 97 
Q 941 138 941 184 
z
" transform="scale(0.015625)"/>
       <path id="TimesNewRomanPSMT-36" d="M 2869 4325 
L 2869 4209 
Q 2456 4169 2195 4045 
Q 1934 3922 1679 3669 
Q 1425 3416 1258 3105 
Q 1091 2794 978 2366 
Q 1428 2675 1881 2675 
Q 2316 2675 2634 2325 
Q 2953 1975 2953 1425 
Q 2953 894 2631 456 
Q 2244 -75 1606 -75 
Q 1172 -75 869 213 
Q 275 772 275 1663 
Q 275 2231 503 2743 
Q 731 3256 1154 3653 
Q 1578 4050 1965 4187 
Q 2353 4325 2688 4325 
L 2869 4325 
z
M 925 2138 
Q 869 1716 869 1456 
Q 869 1156 980 804 
Q 1091 453 1309 247 
Q 1469 100 1697 100 
Q 1969 100 2183 356 
Q 2397 613 2397 1088 
Q 2397 1622 2184 2012 
Q 1972 2403 1581 2403 
Q 1463 2403 1327 2353 
Q 1191 2303 925 2138 
z
" transform="scale(0.015625)"/>
      </defs>
      <use xlink:href="#Cmsy10-a3" transform="translate(0 0.582813)"/>
      <use xlink:href="#TimesNewRomanPSMT-31" transform="translate(77.685547 0.582813)"/>
      <use xlink:href="#TimesNewRomanPSMT-30" transform="translate(127.685547 0.582813)"/>
      <use xlink:href="#TimesNewRomanPSMT-2212" transform="translate(179.188359 60.695312)scale(0.7)"/>
      <use xlink:href="#TimesNewRomanPSMT-36" transform="translate(218.665898 60.695312)scale(0.7)"/>
     </g>
    </g>
   </g>
   <g id="matplotlib.axis_2">
    <g id="ytick_1">
     <g id="line2d_10">
      <defs>
       <path id="me5c687773c" d="M 0 0 
L -3.5 0 
" style="stroke: #000000; stroke-width: 0.8"/>
      </defs>
      <g>
       <use xlink:href="#me5c687773c" x="46.4" y="263.680937" style="stroke: #000000; stroke-width: 0.8"/>
      </g>
     </g>
     <g id="text_12">
      <!-- $\mathdefault{−2.0}$ -->
      <g transform="translate(21.2 267.152812)scale(0.1 -0.1)">
       <use xlink:href="#TimesNewRomanPSMT-2212" transform="translate(0 0.421875)"/>
       <use xlink:href="#TimesNewRomanPSMT-32" transform="translate(56.396484 0.421875)"/>
       <use xlink:href="#TimesNewRomanPSMT-2e" transform="translate(106.396484 0.421875)"/>
       <use xlink:href="#TimesNewRomanPSMT-30" transform="translate(131.396484 0.421875)"/>
      </g>
     </g>
    </g>
    <g id="ytick_2">
     <g id="line2d_11">
      <g>
       <use xlink:href="#me5c687773c" x="46.4" y="233.103437" style="stroke: #000000; stroke-width: 0.8"/>
      </g>
     </g>
     <g id="text_13">
      <!-- $\mathdefault{−1.5}$ -->
      <g transform="translate(21.2 236.575312)scale(0.1 -0.1)">
       <use xlink:href="#TimesNewRomanPSMT-2212" transform="translate(0 0.421875)"/>
       <use xlink:href="#TimesNewRomanPSMT-31" transform="translate(56.396484 0.421875)"/>
       <use xlink:href="#TimesNewRomanPSMT-2e" transform="translate(106.396484 0.421875)"/>
       <use xlink:href="#TimesNewRomanPSMT-35" transform="translate(131.396484 0.421875)"/>
      </g>
     </g>
    </g>
    <g id="ytick_3">
     <g id="line2d_12">
      <g>
       <use xlink:href="#me5c687773c" x="46.4" y="202.525937" style="stroke: #000000; stroke-width: 0.8"/>
      </g>
     </g>
     <g id="text_14">
      <!-- $\mathdefault{−1.0}$ -->
      <g transform="translate(21.2 205.997812)scale(0.1 -0.1)">
       <use xlink:href="#TimesNewRomanPSMT-2212" transform="translate(0 0.421875)"/>
       <use xlink:href="#TimesNewRomanPSMT-31" transform="translate(56.396484 0.421875)"/>
       <use xlink:href="#TimesNewRomanPSMT-2e" transform="translate(106.396484 0.421875)"/>
       <use xlink:href="#TimesNewRomanPSMT-30" transform="translate(131.396484 0.421875)"/>
      </g>
     </g>
    </g>
    <g id="ytick_4">
     <g id="line2d_13">
      <g>
       <use xlink:href="#me5c687773c" x="46.4" y="171.948437" style="stroke: #000000; stroke-width: 0.8"/>
      </g>
     </g>
     <g id="text_15">
      <!-- $\mathdefault{−0.5}$ -->
      <g transform="translate(21.2 175.420312)scale(0.1 -0.1)">
       <use xlink:href="#TimesNewRomanPSMT-2212" transform="translate(0 0.421875)"/>
       <use xlink:href="#TimesNewRomanPSMT-30" transform="translate(56.396484 0.421875)"/>
       <use xlink:href="#TimesNewRomanPSMT-2e" transform="translate(106.396484 0.421875)"/>
       <use xlink:href="#TimesNewRomanPSMT-35" transform="translate(131.396484 0.421875)"/>
      </g>
     </g>
    </g>
    <g id="ytick_5">
     <g id="line2d_14">
      <g>
       <use xlink:href="#me5c687773c" x="46.4" y="141.370937" style="stroke: #000000; stroke-width: 0.8"/>
      </g>
     </g>
     <g id="text_16">
      <!-- $\mathdefault{0.0}$ -->
      <g transform="translate(26.9 144.842812)scale(0.1 -0.1)">
       <use xlink:href="#TimesNewRomanPSMT-30" transform="translate(0 0.421875)"/>
       <use xlink:href="#TimesNewRomanPSMT-2e" transform="translate(50 0.421875)"/>
       <use xlink:href="#TimesNewRomanPSMT-30" transform="translate(75 0.421875)"/>
      </g>
     </g>
    </g>
    <g id="ytick_6">
     <g id="line2d_15">
      <g>
       <use xlink:href="#me5c687773c" x="46.4" y="110.793437" style="stroke: #000000; stroke-width: 0.8"/>
      </g>
     </g>
     <g id="text_17">
      <!-- $\mathdefault{0.5}$ -->
      <g transform="translate(26.9 114.265312)scale(0.1 -0.1)">
       <use xlink:href="#TimesNewRomanPSMT-30" transform="translate(0 0.421875)"/>
       <use xlink:href="#TimesNewRomanPSMT-2e" transform="translate(50 0.421875)"/>
       <use xlink:href="#TimesNewRomanPSMT-35" transform="translate(75 0.421875)"/>
      </g>
     </g>
    </g>
    <g id="ytick_7">
     <g id="line2d_16">
      <g>
       <use xlink:href="#me5c687773c" x="46.4" y="80.215937" style="stroke: #000000; stroke-width: 0.8"/>
      </g>
     </g>
     <g id="text_18">
      <!-- $\mathdefault{1.0}$ -->
      <g transform="translate(26.9 83.687812)scale(0.1 -0.1)">
       <use xlink:href="#TimesNewRomanPSMT-31" transform="translate(0 0.421875)"/>
       <use xlink:href="#TimesNewRomanPSMT-2e" transform="translate(50 0.421875)"/>
       <use xlink:href="#TimesNewRomanPSMT-30" transform="translate(75 0.421875)"/>
      </g>
     </g>
    </g>
    <g id="ytick_8">
     <g id="line2d_17">
      <g>
       <use xlink:href="#me5c687773c" x="46.4" y="49.638437" style="stroke: #000000; stroke-width: 0.8"/>
      </g>
     </g>
     <g id="text_19">
      <!-- $\mathdefault{1.5}$ -->
      <g transform="translate(26.9 53.110312)scale(0.1 -0.1)">
       <use xlink:href="#TimesNewRomanPSMT-31" transform="translate(0 0.421875)"/>
       <use xlink:href="#TimesNewRomanPSMT-2e" transform="translate(50 0.421875)"/>
       <use xlink:href="#TimesNewRomanPSMT-35" transform="translate(75 0.421875)"/>
      </g>
     </g>
    </g>
    <g id="ytick_9">
     <g id="line2d_18">
      <g>
       <use xlink:href="#me5c687773c" x="46.4" y="19.060937" style="stroke: #000000; stroke-width: 0.8"/>
      </g>
     </g>
     <g id="text_20">
      <!-- $\mathdefault{2.0}$ -->
      <g transform="translate(26.9 22.532812)scale(0.1 -0.1)">
       <use xlink:href="#TimesNewRomanPSMT-32" transform="translate(0 0.421875)"/>
       <use xlink:href="#TimesNewRomanPSMT-2e" transform="translate(50 0.421875)"/>
       <use xlink:href="#TimesNewRomanPSMT-30" transform="translate(75 0.421875)"/>
      </g>
     </g>
    </g>
    <g id="text_21">
     <!-- $y\,/\,\mathrm{m}$ -->
     <g transform="translate(14.7 151.970938)rotate(-90)scale(0.1 -0.1)">
      <defs>
       <path id="Cmmi10-79" d="M 538 -916 
Q 672 -1147 1006 -1147 
Q 1309 -1147 1531 -934 
Q 1753 -722 1889 -420 
Q 2025 -119 2100 197 
Q 1816 -72 1484 -72 
Q 1231 -72 1053 15 
Q 875 103 776 276 
Q 678 450 678 697 
Q 678 906 734 1126 
Q 791 1347 892 1617 
Q 994 1888 1069 2088 
Q 1153 2322 1153 2472 
Q 1153 2663 1013 2663 
Q 759 2663 595 2402 
Q 431 2141 353 1819 
Q 341 1778 300 1778 
L 225 1778 
Q 172 1778 172 1838 
L 172 1856 
Q 275 2238 487 2533 
Q 700 2828 1025 2828 
Q 1253 2828 1411 2678 
Q 1569 2528 1569 2297 
Q 1569 2178 1516 2047 
Q 1488 1969 1388 1706 
Q 1288 1444 1234 1272 
Q 1181 1100 1147 934 
Q 1113 769 1113 603 
Q 1113 391 1203 244 
Q 1294 97 1491 97 
Q 1888 97 2203 581 
L 2688 2553 
Q 2709 2638 2787 2698 
Q 2866 2759 2956 2759 
Q 3034 2759 3092 2709 
Q 3150 2659 3150 2578 
Q 3150 2541 3144 2528 
L 2509 -19 
Q 2425 -347 2200 -647 
Q 1975 -947 1658 -1130 
Q 1341 -1313 997 -1313 
Q 831 -1313 668 -1248 
Q 506 -1184 406 -1056 
Q 306 -928 306 -756 
Q 306 -581 409 -453 
Q 513 -325 684 -325 
Q 788 -325 858 -389 
Q 928 -453 928 -556 
Q 928 -703 818 -812 
Q 709 -922 563 -922 
Q 556 -919 550 -917 
Q 544 -916 538 -916 
z
" transform="scale(0.015625)"/>
      </defs>
      <use xlink:href="#Cmmi10-79"/>
      <use xlink:href="#Cmmi10-3d" transform="translate(63.655892 0)"/>
      <use xlink:href="#Cmr10-6d" transform="translate(128.288346 0)"/>
     </g>
    </g>
    <g id="text_22">
     <!-- $\times\mathdefault{10^{−6}}\mathdefault{}$ -->
     <g transform="translate(46.4 16.060938)scale(0.1 -0.1)">
      <use xlink:href="#Cmsy10-a3" transform="translate(0 0.582813)"/>
      <use xlink:href="#TimesNewRomanPSMT-31" transform="translate(77.685547 0.582813)"/>
      <use xlink:href="#TimesNewRomanPSMT-30" transform="translate(127.685547 0.582813)"/>
      <use xlink:href="#TimesNewRomanPSMT-2212" transform="translate(179.188359 60.695312)scale(0.7)"/>
      <use xlink:href="#TimesNewRomanPSMT-36" transform="translate(218.665898 60.695312)scale(0.7)"/>
     </g>
    </g>
   </g>
   <g id="patch_3">
    <path d="M 46.4 263.680937 
L 46.4 19.060938 
" style="fill: none; stroke: #000000; stroke-width: 0.8; stroke-linejoin: miter; stroke-linecap: square"/>
   </g>
   <g id="patch_4">
    <path d="M 291.02 263.680937 
L 291.02 19.060938 
" style="fill: none; stroke: #000000; stroke-width: 0.8; stroke-linejoin: miter; stroke-linecap: square"/>
   </g>
   <g id="patch_5">
    <path d="M 46.4 263.680938 
L 291.02 263.680938 
" style="fill: none; stroke: #000000; stroke-width: 0.8; stroke-linejoin: miter; stroke-linecap: square"/>
   </g>
   <g id="patch_6">
    <path d="M 46.4 19.060938 
L 291.02 19.060938 
" style="fill: none; stroke: #000000; stroke-width: 0.8; stroke-linejoin: miter; stroke-linecap: square"/>
   </g>
  </g>
  <g id="axes_2">
   <g id="patch_7">
    <path d="M 307.76 263.680937 
L 319.991 263.680937 
L 319.991 19.060938 
L 307.76 19.060938 
z
" style="fill: #ffffff"/>
   </g>
   <g id="patch_8">
    <path clip-path="url(#p238a3371dd)" style="fill: #ffffff; stroke: #ffffff; stroke-width: 0.01; stroke-linejoin: miter"/>
   </g>
   <g id="QuadMesh_1">
    <path d="M 307.76 263.680937 
L 319.991 263.680937 
L 319.991 246.20808 
L 307.76 246.20808 
L 307.76 263.680937 
" clip-path="url(#p238a3371dd)" style="fill: #470e61"/>
    <path d="M 307.76 246.20808 
L 319.991 246.20808 
L 319.991 228.735223 
L 307.76 228.735223 
L 307.76 246.20808 
" clip-path="url(#p238a3371dd)" style="fill: #482677"/>
    <path d="M 307.76 228.735223 
L 319.991 228.735223 
L 319.991 211.262366 
L 307.76 211.262366 
L 307.76 228.735223 
" clip-path="url(#p238a3371dd)" style="fill: #433d84"/>
    <path d="M 307.76 211.262366 
L 319.991 211.262366 
L 319.991 193.789509 
L 307.76 193.789509 
L 307.76 211.262366 
" clip-path="url(#p238a3371dd)" style="fill: #3b528b"/>
    <path d="M 307.76 193.789509 
L 319.991 193.789509 
L 319.991 176.316652 
L 307.76 176.316652 
L 307.76 193.789509 
" clip-path="url(#p238a3371dd)" style="fill: #32658e"/>
    <path d="M 307.76 176.316652 
L 319.991 176.316652 
L 319.991 158.843795 
L 307.76 158.843795 
L 307.76 176.316652 
" clip-path="url(#p238a3371dd)" style="fill: #2a768e"/>
    <path d="M 307.76 158.843795 
L 319.991 158.843795 
L 319.991 141.370937 
L 307.76 141.370937 
L 307.76 158.843795 
" clip-path="url(#p238a3371dd)" style="fill: #24878e"/>
    <path d="M 307.76 141.370937 
L 319.991 141.370937 
L 319.991 123.89808 
L 307.76 123.89808 
L 307.76 141.370937 
" clip-path="url(#p238a3371dd)" style="fill: #1f998a"/>
    <path d="M 307.76 123.89808 
L 319.991 123.89808 
L 319.991 106.425223 
L 307.76 106.425223 
L 307.76 123.89808 
" clip-path="url(#p238a3371dd)" style="fill: #24aa83"/>
    <path d="M 307.76 106.425223 
L 319.991 106.425223 
L 319.991 88.952366 
L 307.76 88.952366 
L 307.76 106.425223 
" clip-path="url(#p238a3371dd)" style="fill: #3aba76"/>
    <path d="M 307.76 88.952366 
L 319.991 88.952366 
L 319.991 71.479509 
L 307.76 71.479509 
L 307.76 88.952366 
" clip-path="url(#p238a3371dd)" style="fill: #5cc863"/>
    <path d="M 307.76 71.479509 
L 319.991 71.479509 
L 319.991 54.006652 
L 307.76 54.006652 
L 307.76 71.479509 
" clip-path="url(#p238a3371dd)" style="fill: #89d548"/>
    <path d="M 307.76 54.006652 
L 319.991 54.006652 
L 319.991 36.533795 
L 307.76 36.533795 
L 307.76 54.006652 
" clip-path="url(#p238a3371dd)" style="fill: #b8de29"/>
    <path d="M 307.76 36.533795 
L 319.991 36.533795 
L 319.991 19.060938 
L 307.76 19.060938 
L 307.76 36.533795 
" clip-path="url(#p238a3371dd)" style="fill: #e7e419"/>
   </g>
   <g id="matplotlib.axis_3">
    <g id="ytick_10">
     <g id="line2d_19">
      <defs>
       <path id="mded45290aa" d="M 0 0 
L 3.5 0 
" style="stroke: #000000; stroke-width: 0.8"/>
      </defs>
      <g>
       <use xlink:href="#mded45290aa" x="319.991" y="263.680937" style="stroke: #000000; stroke-width: 0.8"/>
      </g>
     </g>
     <g id="text_23">
      <!-- $\mathdefault{−8.342}$ -->
      <g transform="translate(326.991 267.152812)scale(0.1 -0.1)">
       <defs>
        <path id="TimesNewRomanPSMT-38" d="M 1228 2134 
Q 725 2547 579 2797 
Q 434 3047 434 3316 
Q 434 3728 753 4026 
Q 1072 4325 1600 4325 
Q 2113 4325 2425 4047 
Q 2738 3769 2738 3413 
Q 2738 3175 2569 2928 
Q 2400 2681 1866 2347 
Q 2416 1922 2594 1678 
Q 2831 1359 2831 1006 
Q 2831 559 2490 242 
Q 2150 -75 1597 -75 
Q 994 -75 656 303 
Q 388 606 388 966 
Q 388 1247 577 1523 
Q 766 1800 1228 2134 
z
M 1719 2469 
Q 2094 2806 2194 3001 
Q 2294 3197 2294 3444 
Q 2294 3772 2109 3958 
Q 1925 4144 1606 4144 
Q 1288 4144 1088 3959 
Q 888 3775 888 3528 
Q 888 3366 970 3203 
Q 1053 3041 1206 2894 
L 1719 2469 
z
M 1375 2016 
Q 1116 1797 991 1539 
Q 866 1281 866 981 
Q 866 578 1086 336 
Q 1306 94 1647 94 
Q 1984 94 2187 284 
Q 2391 475 2391 747 
Q 2391 972 2272 1150 
Q 2050 1481 1375 2016 
z
" transform="scale(0.015625)"/>
        <path id="TimesNewRomanPSMT-33" d="M 325 3431 
Q 506 3859 782 4092 
Q 1059 4325 1472 4325 
Q 1981 4325 2253 3994 
Q 2459 3747 2459 3466 
Q 2459 3003 1878 2509 
Q 2269 2356 2469 2072 
Q 2669 1788 2669 1403 
Q 2669 853 2319 450 
Q 1863 -75 997 -75 
Q 569 -75 414 31 
Q 259 138 259 259 
Q 259 350 332 419 
Q 406 488 509 488 
Q 588 488 669 463 
Q 722 447 909 348 
Q 1097 250 1169 231 
Q 1284 197 1416 197 
Q 1734 197 1970 444 
Q 2206 691 2206 1028 
Q 2206 1275 2097 1509 
Q 2016 1684 1919 1775 
Q 1784 1900 1550 2001 
Q 1316 2103 1072 2103 
L 972 2103 
L 972 2197 
Q 1219 2228 1467 2375 
Q 1716 2522 1828 2728 
Q 1941 2934 1941 3181 
Q 1941 3503 1739 3701 
Q 1538 3900 1238 3900 
Q 753 3900 428 3381 
L 325 3431 
z
" transform="scale(0.015625)"/>
        <path id="TimesNewRomanPSMT-34" d="M 2978 1563 
L 2978 1119 
L 2409 1119 
L 2409 0 
L 1894 0 
L 1894 1119 
L 100 1119 
L 100 1519 
L 2066 4325 
L 2409 4325 
L 2409 1563 
L 2978 1563 
z
M 1894 1563 
L 1894 3666 
L 406 1563 
L 1894 1563 
z
" transform="scale(0.015625)"/>
       </defs>
       <use xlink:href="#TimesNewRomanPSMT-2212" transform="translate(0 0.421875)"/>
       <use xlink:href="#TimesNewRomanPSMT-38" transform="translate(56.396484 0.421875)"/>
       <use xlink:href="#TimesNewRomanPSMT-2e" transform="translate(106.396484 0.421875)"/>
       <use xlink:href="#TimesNewRomanPSMT-33" transform="translate(131.396484 0.421875)"/>
       <use xlink:href="#TimesNewRomanPSMT-34" transform="translate(181.396484 0.421875)"/>
       <use xlink:href="#TimesNewRomanPSMT-32" transform="translate(231.396484 0.421875)"/>
      </g>
     </g>
    </g>
    <g id="ytick_11">
     <g id="line2d_20">
      <g>
       <use xlink:href="#mded45290aa" x="319.991" y="228.735223" style="stroke: #000000; stroke-width: 0.8"/>
      </g>
     </g>
     <g id="text_24">
      <!-- $\mathdefault{−7.150}$ -->
      <g transform="translate(326.991 232.207098)scale(0.1 -0.1)">
       <defs>
        <path id="TimesNewRomanPSMT-37" d="M 644 4238 
L 2916 4238 
L 2916 4119 
L 1503 -88 
L 1153 -88 
L 2419 3728 
L 1253 3728 
Q 900 3728 750 3644 
Q 488 3500 328 3200 
L 238 3234 
L 644 4238 
z
" transform="scale(0.015625)"/>
       </defs>
       <use xlink:href="#TimesNewRomanPSMT-2212" transform="translate(0 0.421875)"/>
       <use xlink:href="#TimesNewRomanPSMT-37" transform="translate(56.396484 0.421875)"/>
       <use xlink:href="#TimesNewRomanPSMT-2e" transform="translate(106.396484 0.421875)"/>
       <use xlink:href="#TimesNewRomanPSMT-31" transform="translate(131.396484 0.421875)"/>
       <use xlink:href="#TimesNewRomanPSMT-35" transform="translate(181.396484 0.421875)"/>
       <use xlink:href="#TimesNewRomanPSMT-30" transform="translate(231.396484 0.421875)"/>
      </g>
     </g>
    </g>
    <g id="ytick_12">
     <g id="line2d_21">
      <g>
       <use xlink:href="#mded45290aa" x="319.991" y="193.789509" style="stroke: #000000; stroke-width: 0.8"/>
      </g>
     </g>
     <g id="text_25">
      <!-- $\mathdefault{−5.958}$ -->
      <g transform="translate(326.991 197.261384)scale(0.1 -0.1)">
       <defs>
        <path id="TimesNewRomanPSMT-39" d="M 338 -88 
L 338 28 
Q 744 34 1094 217 
Q 1444 400 1770 856 
Q 2097 1313 2225 1859 
Q 1734 1544 1338 1544 
Q 891 1544 572 1889 
Q 253 2234 253 2806 
Q 253 3363 572 3797 
Q 956 4325 1575 4325 
Q 2097 4325 2469 3894 
Q 2925 3359 2925 2575 
Q 2925 1869 2578 1258 
Q 2231 647 1613 244 
Q 1109 -88 516 -88 
L 338 -88 
z
M 2275 2091 
Q 2331 2497 2331 2741 
Q 2331 3044 2228 3395 
Q 2125 3747 1936 3934 
Q 1747 4122 1506 4122 
Q 1228 4122 1018 3872 
Q 809 3622 809 3128 
Q 809 2469 1088 2097 
Q 1291 1828 1588 1828 
Q 1731 1828 1928 1897 
Q 2125 1966 2275 2091 
z
" transform="scale(0.015625)"/>
       </defs>
       <use xlink:href="#TimesNewRomanPSMT-2212" transform="translate(0 0.421875)"/>
       <use xlink:href="#TimesNewRomanPSMT-35" transform="translate(56.396484 0.421875)"/>
       <use xlink:href="#TimesNewRomanPSMT-2e" transform="translate(106.396484 0.421875)"/>
       <use xlink:href="#TimesNewRomanPSMT-39" transform="translate(131.396484 0.421875)"/>
       <use xlink:href="#TimesNewRomanPSMT-35" transform="translate(181.396484 0.421875)"/>
       <use xlink:href="#TimesNewRomanPSMT-38" transform="translate(231.396484 0.421875)"/>
      </g>
     </g>
    </g>
    <g id="ytick_13">
     <g id="line2d_22">
      <g>
       <use xlink:href="#mded45290aa" x="319.991" y="158.843795" style="stroke: #000000; stroke-width: 0.8"/>
      </g>
     </g>
     <g id="text_26">
      <!-- $\mathdefault{−4.766}$ -->
      <g transform="translate(326.991 162.31567)scale(0.1 -0.1)">
       <use xlink:href="#TimesNewRomanPSMT-2212" transform="translate(0 0.421875)"/>
       <use xlink:href="#TimesNewRomanPSMT-34" transform="translate(56.396484 0.421875)"/>
       <use xlink:href="#TimesNewRomanPSMT-2e" transform="translate(106.396484 0.421875)"/>
       <use xlink:href="#TimesNewRomanPSMT-37" transform="translate(131.396484 0.421875)"/>
       <use xlink:href="#TimesNewRomanPSMT-36" transform="translate(181.396484 0.421875)"/>
       <use xlink:href="#TimesNewRomanPSMT-36" transform="translate(231.396484 0.421875)"/>
      </g>
     </g>
    </g>
    <g id="ytick_14">
     <g id="line2d_23">
      <g>
       <use xlink:href="#mded45290aa" x="319.991" y="123.89808" style="stroke: #000000; stroke-width: 0.8"/>
      </g>
     </g>
     <g id="text_27">
      <!-- $\mathdefault{−3.574}$ -->
      <g transform="translate(326.991 127.369955)scale(0.1 -0.1)">
       <use xlink:href="#TimesNewRomanPSMT-2212" transform="translate(0 0.421875)"/>
       <use xlink:href="#TimesNewRomanPSMT-33" transform="translate(56.396484 0.421875)"/>
       <use xlink:href="#TimesNewRomanPSMT-2e" transform="translate(106.396484 0.421875)"/>
       <use xlink:href="#TimesNewRomanPSMT-35" transform="translate(131.396484 0.421875)"/>
       <use xlink:href="#TimesNewRomanPSMT-37" transform="translate(175.396484 0.421875)"/>
       <use xlink:href="#TimesNewRomanPSMT-34" transform="translate(225.396484 0.421875)"/>
      </g>
     </g>
    </g>
    <g id="ytick_15">
     <g id="line2d_24">
      <g>
       <use xlink:href="#mded45290aa" x="319.991" y="88.952366" style="stroke: #000000; stroke-width: 0.8"/>
      </g>
     </g>
     <g id="text_28">
      <!-- $\mathdefault{−2.382}$ -->
      <g transform="translate(326.991 92.424241)scale(0.1 -0.1)">
       <use xlink:href="#TimesNewRomanPSMT-2212" transform="translate(0 0.421875)"/>
       <use xlink:href="#TimesNewRomanPSMT-32" transform="translate(56.396484 0.421875)"/>
       <use xlink:href="#TimesNewRomanPSMT-2e" transform="translate(106.396484 0.421875)"/>
       <use xlink:href="#TimesNewRomanPSMT-33" transform="translate(131.396484 0.421875)"/>
       <use xlink:href="#TimesNewRomanPSMT-38" transform="translate(181.396484 0.421875)"/>
       <use xlink:href="#TimesNewRomanPSMT-32" transform="translate(231.396484 0.421875)"/>
      </g>
     </g>
    </g>
    <g id="ytick_16">
     <g id="line2d_25">
      <g>
       <use xlink:href="#mded45290aa" x="319.991" y="54.006652" style="stroke: #000000; stroke-width: 0.8"/>
      </g>
     </g>
     <g id="text_29">
      <!-- $\mathdefault{−1.190}$ -->
      <g transform="translate(326.991 57.478527)scale(0.1 -0.1)">
       <use xlink:href="#TimesNewRomanPSMT-2212" transform="translate(0 0.421875)"/>
       <use xlink:href="#TimesNewRomanPSMT-31" transform="translate(56.396484 0.421875)"/>
       <use xlink:href="#TimesNewRomanPSMT-2e" transform="translate(106.396484 0.421875)"/>
       <use xlink:href="#TimesNewRomanPSMT-31" transform="translate(131.396484 0.421875)"/>
       <use xlink:href="#TimesNewRomanPSMT-39" transform="translate(181.396484 0.421875)"/>
       <use xlink:href="#TimesNewRomanPSMT-30" transform="translate(231.396484 0.421875)"/>
      </g>
     </g>
    </g>
    <g id="ytick_17">
     <g id="line2d_26">
      <g>
       <use xlink:href="#mded45290aa" x="319.991" y="19.060938" style="stroke: #000000; stroke-width: 0.8"/>
      </g>
     </g>
     <g id="text_30">
      <!-- $\mathdefault{0.002}$ -->
      <g transform="translate(326.991 22.532813)scale(0.1 -0.1)">
       <use xlink:href="#TimesNewRomanPSMT-30" transform="translate(0 0.421875)"/>
       <use xlink:href="#TimesNewRomanPSMT-2e" transform="translate(50 0.421875)"/>
       <use xlink:href="#TimesNewRomanPSMT-30" transform="translate(75 0.421875)"/>
       <use xlink:href="#TimesNewRomanPSMT-30" transform="translate(125 0.421875)"/>
       <use xlink:href="#TimesNewRomanPSMT-32" transform="translate(175 0.421875)"/>
      </g>
     </g>
    </g>
    <g id="text_31">
     <!-- $-\frac{1}{2}\Omega^2n$ -->
     <g transform="translate(367.691 156.570937)rotate(-90)scale(0.1 -0.1)">
      <defs>
       <path id="Cmsy10-a1" d="M 653 1472 
Q 600 1472 565 1512 
Q 531 1553 531 1600 
Q 531 1647 565 1687 
Q 600 1728 653 1728 
L 4325 1728 
Q 4375 1728 4408 1687 
Q 4441 1647 4441 1600 
Q 4441 1553 4408 1512 
Q 4375 1472 4325 1472 
L 653 1472 
z
" transform="scale(0.015625)"/>
       <path id="Cmr10-31" d="M 594 0 
L 594 225 
Q 1394 225 1394 428 
L 1394 3788 
Q 1063 3628 556 3628 
L 556 3853 
Q 1341 3853 1741 4263 
L 1831 4263 
Q 1853 4263 1873 4245 
Q 1894 4228 1894 4206 
L 1894 428 
Q 1894 225 2694 225 
L 2694 0 
L 594 0 
z
" transform="scale(0.015625)"/>
       <path id="Cmr10-32" d="M 319 0 
L 319 172 
Q 319 188 331 206 
L 1325 1306 
Q 1550 1550 1690 1715 
Q 1831 1881 1968 2097 
Q 2106 2313 2186 2536 
Q 2266 2759 2266 3009 
Q 2266 3272 2169 3511 
Q 2072 3750 1880 3894 
Q 1688 4038 1416 4038 
Q 1138 4038 916 3870 
Q 694 3703 603 3438 
Q 628 3444 672 3444 
Q 816 3444 917 3347 
Q 1019 3250 1019 3097 
Q 1019 2950 917 2848 
Q 816 2747 672 2747 
Q 522 2747 420 2851 
Q 319 2956 319 3097 
Q 319 3338 409 3548 
Q 500 3759 670 3923 
Q 841 4088 1055 4175 
Q 1269 4263 1509 4263 
Q 1875 4263 2190 4108 
Q 2506 3953 2690 3670 
Q 2875 3388 2875 3009 
Q 2875 2731 2753 2481 
Q 2631 2231 2440 2026 
Q 2250 1822 1953 1562 
Q 1656 1303 1563 1216 
L 838 519 
L 1453 519 
Q 1906 519 2211 526 
Q 2516 534 2534 550 
Q 2609 631 2688 1141 
L 2875 1141 
L 2694 0 
L 319 0 
z
" transform="scale(0.015625)"/>
       <path id="Cmr10-ad" d="M 494 0 
L 281 1063 
L 469 1063 
Q 503 878 531 736 
Q 559 594 604 536 
Q 650 478 750 459 
Q 850 441 1081 441 
L 1472 441 
Q 1378 803 1004 1386 
Q 631 1969 495 2233 
Q 359 2497 359 2913 
Q 359 3397 646 3761 
Q 934 4125 1389 4319 
Q 1844 4513 2309 4513 
Q 2772 4513 3226 4319 
Q 3681 4125 3968 3758 
Q 4256 3391 4256 2913 
Q 4256 2588 4137 2300 
Q 4019 2013 3834 1725 
Q 3650 1438 3436 1084 
Q 3222 731 3144 441 
L 3531 441 
Q 3766 441 3869 459 
Q 3972 478 4015 536 
Q 4059 594 4086 736 
Q 4113 878 4147 1063 
L 4331 1063 
L 4122 0 
L 2988 0 
Q 2925 0 2925 84 
Q 2925 409 3004 721 
Q 3084 1034 3240 1478 
Q 3397 1922 3484 2261 
Q 3572 2600 3572 2913 
Q 3572 3297 3422 3625 
Q 3272 3953 2984 4150 
Q 2697 4347 2309 4347 
Q 1725 4347 1384 3930 
Q 1044 3513 1044 2913 
Q 1047 2584 1122 2293 
Q 1197 2003 1364 1518 
Q 1531 1034 1611 721 
Q 1691 409 1691 84 
Q 1691 0 1625 0 
L 494 0 
z
" transform="scale(0.015625)"/>
       <path id="Cmmi10-6e" d="M 494 109 
Q 494 147 500 166 
L 978 2075 
Q 1025 2253 1025 2388 
Q 1025 2663 838 2663 
Q 638 2663 541 2423 
Q 444 2184 353 1819 
Q 353 1800 334 1789 
Q 316 1778 300 1778 
L 225 1778 
Q 203 1778 187 1801 
Q 172 1825 172 1844 
Q 241 2122 305 2315 
Q 369 2509 505 2668 
Q 641 2828 844 2828 
Q 1084 2828 1268 2676 
Q 1453 2525 1453 2291 
Q 1644 2541 1900 2684 
Q 2156 2828 2444 2828 
Q 2672 2828 2837 2750 
Q 3003 2672 3095 2514 
Q 3188 2356 3188 2138 
Q 3188 1875 3070 1503 
Q 2953 1131 2778 672 
Q 2688 463 2688 288 
Q 2688 97 2834 97 
Q 3084 97 3251 365 
Q 3419 634 3488 941 
Q 3500 978 3541 978 
L 3616 978 
Q 3641 978 3658 962 
Q 3675 947 3675 922 
Q 3675 916 3669 903 
Q 3581 541 3364 234 
Q 3147 -72 2822 -72 
Q 2597 -72 2437 83 
Q 2278 238 2278 459 
Q 2278 578 2328 709 
Q 2409 919 2514 1209 
Q 2619 1500 2686 1765 
Q 2753 2031 2753 2234 
Q 2753 2413 2679 2538 
Q 2606 2663 2431 2663 
Q 2197 2663 2000 2559 
Q 1803 2456 1656 2286 
Q 1509 2116 1388 1881 
L 953 141 
Q 931 53 854 -9 
Q 778 -72 684 -72 
Q 606 -72 550 -22 
Q 494 28 494 109 
z
" transform="scale(0.015625)"/>
      </defs>
      <use xlink:href="#Cmsy10-a1" transform="translate(0 0.109375)"/>
      <use xlink:href="#Cmr10-31" transform="translate(77.685547 37.609375)scale(0.7)"/>
      <use xlink:href="#Cmr10-32" transform="translate(77.685547 -40.267187)scale(0.7)"/>
      <use xlink:href="#Cmr10-ad" transform="translate(125.185547 0.109375)"/>
      <use xlink:href="#Cmr10-32" transform="translate(201.866484 38.373438)scale(0.7)"/>
      <use xlink:href="#Cmmi10-6e" transform="translate(243.243828 0.109375)"/>
      <path d="M 77.685547 12.609375 
L 77.685547 18.859375 
L 112.685547 18.859375 
L 112.685547 12.609375 
L 77.685547 12.609375 
z
"/>
     </g>
    </g>
    <g id="text_32">
     <!-- $\times\mathdefault{10^{22}}\mathdefault{}$ -->
     <g transform="translate(294.591 16.060938)scale(0.1 -0.1)">
      <use xlink:href="#Cmsy10-a3" transform="translate(0 0.582813)"/>
      <use xlink:href="#TimesNewRomanPSMT-31" transform="translate(77.685547 0.582813)"/>
      <use xlink:href="#TimesNewRomanPSMT-30" transform="translate(127.685547 0.582813)"/>
      <use xlink:href="#TimesNewRomanPSMT-32" transform="translate(179.188359 60.695312)scale(0.7)"/>
      <use xlink:href="#TimesNewRomanPSMT-32" transform="translate(214.188359 60.695312)scale(0.7)"/>
     </g>
    </g>
   </g>
   <g id="LineCollection_1"/>
   <g id="patch_9">
    <path d="M 307.76 263.680937 
L 313.8755 263.680937 
L 319.991 263.680937 
L 319.991 19.060938 
L 313.8755 19.060938 
L 307.76 19.060938 
L 307.76 263.680937 
z
" style="fill: none; stroke: #000000; stroke-width: 0.8; stroke-linejoin: miter; stroke-linecap: square"/>
   </g>
  </g>
 </g>
 <defs>
  <clipPath id="pa1c69529a5">
   <rect x="46.4" y="19.060938" width="244.62" height="244.62"/>
  </clipPath>
  <clipPath id="p238a3371dd">
   <rect x="307.76" y="19.060938" width="12.231" height="244.62"/>
  </clipPath>
 </defs>
</svg>
